<svg width="18" height="18" viewBox="0 0 18 18" fill="none" xmlns="http://www.w3.org/2000/svg">
<g clip-path="url(#clip0_1_16035)">
<path d="M9 0C4.02949 0 0 4.02949 0 9C0 13.9705 4.02949 18 9 18C13.9705 18 18 13.9705 18 9C18 4.02949 13.9705 0 9 0ZM11.6442 5.15868C11.2164 5.15868 10.7859 5.15868 10.3582 5.15868C10.0876 5.14116 9.80834 5.34777 9.75888 5.61843C9.75304 6.08694 9.75596 6.55526 9.75596 7.02377C10.3843 7.02669 11.0129 7.02377 11.6415 7.02669C11.5949 7.70453 11.5106 8.37964 11.4117 9.04891C10.856 9.05475 10.3002 9.04891 9.74446 9.05183C9.73862 11.0507 9.74738 13.0466 9.74154 15.0457C8.91513 15.0486 8.09182 15.0428 7.26541 15.0486C7.25081 13.0497 7.26541 11.0509 7.25665 9.05183C6.85513 9.04891 6.45068 9.05475 6.04916 9.04891C6.05208 8.37672 6.04916 7.70472 6.04916 7.03545C6.45068 7.02961 6.85513 7.03545 7.25665 7.03253C7.26833 6.38078 7.24497 5.72611 7.26833 5.07436C7.31195 4.55348 7.50687 4.03277 7.89398 3.67487C8.36249 3.22972 9.02573 3.07842 9.6543 3.0609C10.3177 3.05506 10.9812 3.05798 11.6444 3.05798C11.6471 3.75919 11.6471 4.45747 11.6442 5.15868Z" fill="#4F4F4F"/>
</g>
<defs>
<clipPath id="clip0_1_16035">
<rect width="18" height="18" fill="white"/>
</clipPath>
</defs>
</svg>
