<svg width="25" height="22" viewBox="0 0 25 22" fill="none" xmlns="http://www.w3.org/2000/svg">
<path d="M23.2485 12.2207C23.2485 12.2207 23.3019 11.6669 23.2083 11.4976C23.1146 11.3282 22.2669 10.1163 21.6391 9.88828C21.6391 9.88828 20.7171 9.64691 19.8755 9.50385C19.034 9.36078 17.3513 9.30817 17.3513 9.30817C17.3513 9.30817 14.7333 7.28862 13.1571 7.08002C11.5808 6.87142 5.14291 7.08002 5.14291 7.08002C5.14291 7.08002 3.36182 7.38415 3.14847 7.41876C2.93512 7.45337 3.47961 7.90519 3.47961 7.90519L1.99277 9.38201C1.88304 10.007 1.82939 10.6401 1.83241 11.2742C1.83241 12.3689 1.73779 12.9818 1.73779 12.9818L3.2989 13.2291L3.32256 13.2314C3.31735 13.1682 3.31357 13.1041 3.31357 13.0394C3.31363 12.7217 3.3834 12.4076 3.51821 12.1184C3.65301 11.8291 3.84972 11.5714 4.09512 11.3625C4.34052 11.1535 4.62891 10.9983 4.94092 10.9071C5.25294 10.816 5.58133 10.791 5.90405 10.834C6.22677 10.8769 6.53632 10.9867 6.81191 11.1561C7.0875 11.3254 7.32273 11.5504 7.50181 11.8158C7.68088 12.0812 7.79965 12.3809 7.85012 12.6948C7.90059 13.0087 7.8816 13.3296 7.79443 13.6357L8.05367 13.6592L17.0698 13.7515H17.0816C16.9837 13.4454 16.9547 13.1223 16.9967 12.8043C17.0386 12.4862 17.1505 12.1808 17.3246 11.9088C17.4988 11.6369 17.7311 11.4048 18.0057 11.2286C18.2803 11.0523 18.5906 10.936 18.9156 10.8876C19.2405 10.8392 19.5723 10.8598 19.8883 10.9481C20.2043 11.0364 20.497 11.1902 20.7464 11.399C20.9958 11.6079 21.1961 11.8668 21.3334 12.1582C21.4707 12.4495 21.5419 12.7663 21.5421 13.087C21.5421 13.2859 21.4111 14.0561 21.4111 14.0561C21.4111 14.0561 21.8118 14.0691 21.8652 14.0561C21.9187 14.0432 21.9386 13.6846 21.9386 13.6846C21.9386 13.6846 23.0205 13.6717 23.1808 12.9356C23.1808 12.9356 22.9334 12.7076 23.0337 12.4663C23.134 12.2249 23.2485 12.2207 23.2485 12.2207ZM3.20145 9.94228C2.97911 10.1269 2.41806 10.3812 2.37359 10.329C2.32912 10.2769 2.42705 9.556 2.42705 9.556H3.53118C3.44491 9.70234 3.33336 9.83302 3.20145 9.94228ZM6.19973 7.65228C5.9632 7.98826 5.06438 8.93481 4.82217 9.02619C4.54637 9.13003 2.8722 9.08664 2.8353 9.02619C2.7984 8.96573 4.09081 7.61859 4.09081 7.61859L6.14296 7.5526C6.1551 7.55206 6.16714 7.55484 6.17775 7.56061C6.18835 7.56639 6.19709 7.57493 6.20299 7.58529C6.20889 7.59565 6.21171 7.6074 6.21113 7.61924C6.21056 7.63107 6.20661 7.64252 6.19973 7.65228ZM7.00157 9.08895C6.69408 8.93481 6.7745 8.8522 6.74754 8.61775C6.72057 8.38331 7.45713 7.5526 7.45713 7.5526C7.45713 7.5526 10.3953 7.44507 10.489 7.5526C10.5827 7.66013 10.7028 9.25602 10.7028 9.25602C10.7028 9.25602 7.3067 9.2431 7.00157 9.08895ZM15.4032 9.60815C15.3365 9.6603 11.516 9.37324 11.516 9.37324L11.1021 7.5526C11.1021 7.5526 11.2222 7.58813 12.2507 7.5526C13.2791 7.51706 14.1742 7.94026 14.7754 8.19871C15.3767 8.45715 15.2693 8.79866 15.1624 8.81113C15.0555 8.82359 14.8554 9.0068 14.9088 9.25417C14.9623 9.50154 15.4694 9.556 15.4013 9.60815H15.4032ZM21.6949 10.9631C21.553 10.9308 21.4882 10.7615 21.3278 10.6244C21.1675 10.4873 20.8548 10.5529 20.6802 10.5256C20.5057 10.4984 19.832 10.0313 19.832 10.0313C19.832 10.0313 20.473 10.0835 20.8728 10.1356C21.2725 10.1878 21.1798 10.1356 21.5407 10.2399C21.9017 10.3442 22.3686 10.9631 22.3686 10.9631C22.3686 10.9631 21.8326 10.9959 21.6921 10.9631H21.6949Z" fill="#03060D"/>
<path d="M5.61614 11.2483C5.23445 11.2482 4.86131 11.3585 4.54391 11.5654C4.22652 11.7722 3.97912 12.0662 3.83301 12.4102C3.6869 12.7542 3.64865 13.1327 3.72309 13.4979C3.79753 13.8631 3.98132 14.1986 4.25121 14.4619C4.5211 14.7252 4.86497 14.9045 5.23933 14.9771C5.61368 15.0497 6.00171 15.0124 6.35432 14.8699C6.70693 14.7273 7.00829 14.486 7.22029 14.1763C7.43228 13.8667 7.54538 13.5027 7.54529 13.1303C7.54466 12.6314 7.34121 12.153 6.97956 11.8002C6.61791 11.4474 6.12759 11.2489 5.61614 11.2483ZM4.66055 12.1215C4.91174 12.2908 5.18849 12.5004 5.241 12.583C5.26748 12.6342 5.28355 12.69 5.2883 12.7473C5.27348 12.7574 5.25926 12.7683 5.24573 12.78C5.14624 12.7183 5.03228 12.6822 4.91458 12.6753C4.76368 12.6702 4.47085 12.7625 4.23574 12.8469C4.29718 12.5681 4.44557 12.3147 4.66055 12.1215ZM4.90086 12.9896H4.90559C4.97082 12.9972 5.03376 13.0178 5.09056 13.05C5.08585 13.0767 5.08348 13.1037 5.08347 13.1308C5.0836 13.1567 5.08581 13.1827 5.09009 13.2083C5.01506 13.2264 4.94404 13.2577 4.88052 13.3006C4.75374 13.3883 4.56877 13.6523 4.42875 13.8706C4.29642 13.6678 4.22105 13.4346 4.21019 13.1945C4.47369 13.0939 4.79537 12.9896 4.90086 12.9896ZM5.06785 13.5567C5.12729 13.5227 5.19335 13.5012 5.26181 13.4935L5.26607 13.4968C5.22522 13.579 5.20295 13.6689 5.20079 13.7603C5.20079 13.926 5.33703 14.2758 5.42928 14.4927C5.13533 14.4538 4.8614 14.3256 4.64636 14.1262C4.7949 13.8881 4.98696 13.6144 5.06785 13.5567ZM5.80394 12.4648C5.7867 12.5447 5.75219 12.6201 5.70271 12.6859C5.67039 12.6761 5.63708 12.6697 5.60336 12.667C5.59228 12.5781 5.56214 12.4926 5.5149 12.4159C5.42691 12.2775 5.12841 12.0582 4.93824 11.9262C5.14591 11.8147 5.37908 11.7561 5.61614 11.7559H5.62938C5.72399 12.0384 5.8134 12.3684 5.80394 12.4648ZM5.57214 13.5964C5.63761 13.5949 5.70205 13.5801 5.76137 13.5531C5.76114 13.5547 5.76114 13.5564 5.76137 13.5581C5.78045 13.6814 5.83214 13.7977 5.91133 13.8955C6.00168 13.9984 6.24247 14.1364 6.44494 14.2393C6.24933 14.3794 6.01985 14.4676 5.77887 14.4954C5.66959 14.2513 5.52105 13.8715 5.52152 13.7617C5.52712 13.7039 5.54432 13.6477 5.57214 13.5964ZM6.28599 12.6185C6.22149 12.6478 6.15137 12.6636 6.08021 12.6647C6.10495 12.6101 6.12091 12.5522 6.12752 12.493C6.14171 12.3453 6.06082 12.0439 5.9856 11.8007C6.24713 11.8694 6.48261 12.0106 6.6635 12.2073C6.48988 12.4279 6.34655 12.5839 6.28599 12.6185ZM6.15969 13.6906C6.11984 13.6361 6.09198 13.5742 6.07785 13.5087C6.15191 13.5535 6.23472 13.5827 6.321 13.5946C6.46292 13.6107 6.74676 13.5461 6.97714 13.4848C6.92403 13.6777 6.82846 13.8571 6.69709 14.0104C6.4194 13.8724 6.20936 13.7473 6.15969 13.6906ZM6.04946 13.1188L6.03811 13.1068C6.03588 13.0612 6.02663 13.0163 6.01067 12.9734C6.0348 12.9734 6.05798 12.9757 6.08305 12.9757C6.21078 12.9787 6.33711 12.9493 6.44967 12.8903C6.54145 12.8377 6.67816 12.6997 6.85651 12.4796C6.96685 12.6796 7.02471 12.9032 7.02492 13.1303C7.02492 13.14 7.02492 13.1497 7.02492 13.1589C6.76521 13.2332 6.45109 13.3066 6.3579 13.2974C6.25004 13.2835 6.08636 13.1594 6.04946 13.1188Z" fill="#080B0F"/>
<path d="M19.2631 11.2483C18.8815 11.2484 18.5084 11.3589 18.1912 11.5658C17.8739 11.7727 17.6267 12.0668 17.4807 12.4108C17.3347 12.7548 17.2966 13.1333 17.3712 13.4985C17.4457 13.8636 17.6296 14.199 17.8995 14.4622C18.1694 14.7254 18.5133 14.9046 18.8876 14.9772C19.262 15.0497 19.6499 15.0124 20.0025 14.8698C20.355 14.7272 20.6563 14.4859 20.8683 14.1762C21.0803 13.8666 21.1933 13.5026 21.1932 13.1303C21.1926 12.6312 20.989 12.1527 20.6272 11.7999C20.2653 11.447 19.7748 11.2487 19.2631 11.2483ZM18.3076 12.1215C18.5587 12.2908 18.835 12.5004 18.888 12.583C18.9145 12.6342 18.9306 12.69 18.9353 12.7473C18.9205 12.7574 18.9063 12.7683 18.8927 12.78C18.7932 12.7183 18.6793 12.6822 18.5616 12.6753C18.4107 12.6702 18.1179 12.7625 17.8827 12.8469C17.9442 12.5681 18.0926 12.3147 18.3076 12.1215ZM18.5479 12.9896H18.5526C18.6178 12.9973 18.6807 13.0179 18.7376 13.05C18.7329 13.0767 18.7305 13.1037 18.7305 13.1308C18.7306 13.1567 18.7328 13.1827 18.7371 13.2083C18.6621 13.2264 18.591 13.2577 18.5275 13.3006C18.4007 13.3883 18.2158 13.6523 18.0757 13.8706C17.9432 13.668 17.8675 13.435 17.8562 13.1949C18.1207 13.0939 18.4424 12.9896 18.5479 12.9896ZM18.7149 13.5567C18.7743 13.5227 18.8404 13.5012 18.9088 13.4935C18.9103 13.4943 18.9116 13.4954 18.9126 13.4968C18.8721 13.5791 18.8501 13.6689 18.8478 13.7603C18.8478 13.926 18.984 14.2758 19.0763 14.4927C18.7823 14.4538 18.5084 14.3256 18.2934 14.1262C18.4419 13.8881 18.634 13.6144 18.7149 13.5567ZM19.4509 12.4648C19.4337 12.5447 19.3992 12.6201 19.3497 12.6859C19.3174 12.6761 19.2841 12.6697 19.2504 12.667C19.2393 12.5781 19.2091 12.4926 19.1619 12.4159C19.0739 12.2774 18.7754 12.0582 18.5852 11.9262C18.7929 11.8147 19.0261 11.7561 19.2631 11.7559H19.2759C19.3705 12.0384 19.4604 12.3684 19.4509 12.4648ZM19.2191 13.5964C19.2846 13.5949 19.3491 13.5801 19.4084 13.5531C19.4081 13.5547 19.4081 13.5564 19.4084 13.5581C19.4275 13.6814 19.4791 13.7977 19.5583 13.8955C19.6487 13.9984 19.8895 14.1364 20.0919 14.2393C19.8963 14.3794 19.6669 14.4676 19.4259 14.4954C19.3166 14.2513 19.1681 13.8715 19.1685 13.7617C19.1741 13.7039 19.1913 13.6477 19.2191 13.5964ZM19.933 12.6185C19.8685 12.6478 19.7984 12.6636 19.7272 12.6647C19.752 12.6101 19.7679 12.5522 19.7745 12.493C19.7887 12.3453 19.7078 12.0439 19.6326 11.8007C19.8941 11.8694 20.1296 12.0106 20.3105 12.2073C20.1369 12.4279 19.9935 12.5839 19.933 12.6185ZM19.8067 13.6906C19.7668 13.6361 19.739 13.5742 19.7248 13.5087C19.7989 13.5535 19.8817 13.5827 19.968 13.5946C20.1099 13.6107 20.3938 13.5461 20.6241 13.4848C20.5708 13.6776 20.4752 13.857 20.3441 14.0104C20.0664 13.8724 19.8564 13.7473 19.8067 13.6906ZM19.6965 13.1188L19.6851 13.1068C19.6829 13.0612 19.6736 13.0163 19.6577 12.9734C19.6818 12.9734 19.705 12.9757 19.7301 12.9757C19.8578 12.9787 19.9841 12.9493 20.0967 12.8903C20.1885 12.8377 20.3252 12.6997 20.503 12.4796C20.6137 12.6795 20.6718 12.9031 20.6719 13.1303C20.6719 13.14 20.6719 13.1497 20.6719 13.1589C20.4122 13.2332 20.0981 13.3066 20.0049 13.2974C19.897 13.2835 19.7334 13.1594 19.6965 13.1188Z" fill="#080B0F"/>
</svg>
