<svg width="25" height="22" viewBox="0 0 25 22" fill="none" xmlns="http://www.w3.org/2000/svg">
<path d="M5.46574 16.3253C5.34086 15.5837 5.41844 14.8485 5.51305 14.1133C5.57786 13.608 5.8863 13.3384 6.42133 13.3394C6.51878 13.3394 6.61624 13.3394 6.71369 13.3394C8.00468 13.2965 8.49288 13.2761 8.48815 14.9279C8.48815 15.2048 8.55532 15.3506 8.88221 15.3252C9.23086 15.2985 9.58376 15.3211 9.93478 15.3183C10.0672 15.3183 10.1964 15.3322 10.3132 15.226C11.5352 14.1304 13.4392 14.1115 14.6654 15.1766C14.8073 15.2999 16.2639 15.3931 16.3964 15.2851C16.5014 15.1992 16.4631 15.0765 16.4744 14.9671C16.5066 14.6653 16.5165 14.3598 16.5756 14.063C16.6627 13.6283 16.9229 13.3523 17.4097 13.3403H17.4678C19.0881 13.3703 19.4609 13.0482 19.5768 15.0848C19.6274 15.9616 19.5597 16.8302 19.4774 17.6955C19.4173 18.3315 18.9476 18.4902 17.5904 18.4418C16.939 18.4187 16.6324 18.1649 16.5648 17.5968C16.4153 16.287 16.4153 16.2912 15.05 16.4181C14.8788 16.4342 14.7529 16.4601 14.6905 16.6359C14.5065 17.1546 14.0547 17.3328 13.5627 17.414C12.8129 17.5443 12.0446 17.5343 11.2986 17.3845C10.9552 17.3129 10.6392 17.1717 10.4097 16.8847C10.2896 16.7342 10.3624 16.431 10.0658 16.4268C9.57903 16.4199 9.09083 16.4153 8.60594 16.4522C8.44888 16.4638 8.50234 16.6691 8.49241 16.7956C8.3661 18.4007 8.29135 18.4672 6.63563 18.4404C5.82622 18.4275 5.51731 18.1469 5.46906 17.3494C5.44871 17.0093 5.46574 16.6668 5.46574 16.3253Z" fill="black"/>
<path d="M13.871 13.7736C13.0597 13.559 12.2767 13.5124 11.4877 13.6966C11.201 13.7635 11.0647 13.7478 11.1532 13.3781C11.3013 12.7611 11.2322 12.0818 11.8122 11.611C11.886 11.551 11.8671 11.366 11.8675 11.2386C11.8707 9.81222 11.8707 8.38556 11.8675 6.95858C11.8675 6.38954 11.5662 6.11218 10.9801 6.1071C10.7852 6.1071 10.5898 6.1071 10.3949 6.1071C9.52634 6.1071 9.52681 6.1071 9.42179 6.94058C9.41233 7.01581 9.42179 7.10488 9.383 7.16303C8.9861 7.75745 8.36544 7.49116 7.83135 7.51931C7.42925 7.54054 7.22441 7.25256 7.21637 6.89812C7.19224 6.00465 7.20549 5.11025 7.20833 4.21631C7.21219 4.14115 7.23066 4.06738 7.26273 3.99894C7.44628 3.57158 7.98179 3.46082 8.89196 3.62143C9.3461 3.70127 9.47761 3.99756 9.42085 4.36353C9.32623 4.96349 9.61007 5.04979 10.1352 5.00964C10.8221 4.9598 11.5222 5.09779 12.1528 4.65612C12.4366 4.45768 12.7995 4.55275 13.0857 4.75119C13.8483 5.27962 14.7012 4.89795 15.5068 4.98195C15.7509 5.00687 15.6487 4.71612 15.6535 4.56659C15.6634 4.20016 15.6227 3.77142 16.0683 3.65973C16.5887 3.52959 17.1521 3.47513 17.6588 3.74003C17.8532 3.84249 17.8806 4.08478 17.8811 4.29938C17.8811 5.13655 17.8811 5.97326 17.8844 6.81044C17.8844 7.27933 17.6304 7.50639 17.1668 7.529C16.9525 7.53961 16.7377 7.53454 16.523 7.529C15.8886 7.51792 15.6289 7.32086 15.6752 6.72044C15.7183 6.1574 15.486 6.04618 14.9888 6.09649C14.661 6.12971 14.3265 6.10156 13.9954 6.10295C13.3407 6.10618 12.9669 6.46431 12.966 7.09472C12.966 8.42617 12.966 9.75761 12.9636 11.0895C12.9636 11.3406 12.9357 11.5778 13.2626 11.6862C13.4608 11.7518 13.5114 11.9733 13.5767 12.1454C13.7692 12.6665 13.835 13.2074 13.871 13.7736Z" fill="black"/>
</svg>
