<svg width="25" height="22" viewBox="0 0 25 22" fill="none" xmlns="http://www.w3.org/2000/svg">
<g clip-path="url(#clip0_1_14943)">
<path d="M17.8408 7.12936C18.724 7.72471 19.5949 8.35051 20.5079 8.91078C21.0155 9.2223 21.0694 9.50566 20.7568 9.98793C20.481 10.4125 20.3461 10.634 19.7737 10.2413C17.9841 9.01969 16.1865 7.80824 14.4371 6.5331C13.5094 5.85745 12.568 5.73931 11.602 6.37757C9.74856 7.60241 7.90929 8.84709 6.06717 10.0858C5.73225 10.3105 5.34717 10.4647 5.07374 10.7743C4.89019 10.9806 4.80504 10.9013 4.66218 10.6867C3.79363 9.38336 3.78653 9.39167 5.08273 8.51296C5.78381 8.03807 6.47685 7.55164 7.19874 7.05322C7.1117 6.97522 7.05351 6.88892 6.97309 6.85754C6.54308 6.69001 6.33824 6.44726 6.34013 5.93914C6.34203 5.43102 6.55632 5.20073 6.96647 4.98659C10.101 3.36624 13.332 3.20425 16.651 4.35802C17.0522 4.49647 17.4344 4.688 17.8223 4.86106C18.4023 5.12274 18.6308 5.5284 18.5977 6.18882C18.5703 6.74078 18.0139 6.73801 17.8408 7.12936Z" fill="black"/>
<path d="M15.3605 12.5581C15.4078 13.902 16.0077 14.8403 17.2414 15.3442C17.4576 15.4324 17.4482 15.5164 17.3531 15.6742C16.853 16.5003 16.3469 17.3227 15.8648 18.1585C15.7446 18.3666 15.5937 18.3892 15.388 18.3892C13.4749 18.3855 11.5618 18.3892 9.64875 18.3855C9.3791 18.3855 8.69269 17.6222 8.71539 17.3605C8.72296 17.2738 8.78635 17.2401 8.86299 17.2101C10.5589 16.5437 11.7903 15.2385 13.2152 14.1974C13.9248 13.6768 14.6178 13.1285 15.3605 12.5581Z" fill="black"/>
<path d="M11.5187 14.4779C11.8228 12.2945 10.8057 10.3303 8.09131 9.74606C8.53315 9.44054 8.93336 9.15948 9.33783 8.88535C9.75082 8.60567 10.169 8.33154 10.6454 8.01587C10.7074 8.77412 10.95 9.40823 11.5546 9.85682C11.9875 10.1799 12.4903 10.3396 13.0211 10.3026C14.0543 10.2311 14.9876 9.60714 15.1901 8.1054L17.7446 9.86328C16.2285 10.2934 15.4739 11.5801 14.3022 12.3379C13.3508 12.9508 12.5022 13.7122 11.5187 14.4779Z" fill="black"/>
<path d="M18.3101 10.657C18.8686 10.6566 19.4045 10.8717 19.801 11.2553C20.1975 11.6389 20.4224 12.1599 20.4266 12.7047C20.4304 13.7758 19.4517 14.7445 18.3513 14.7579C17.1999 14.7727 16.2273 13.8446 16.2164 12.7222C16.2143 12.4523 16.2668 12.1847 16.371 11.9347C16.4752 11.6847 16.6289 11.4572 16.8235 11.2653C17.018 11.0734 17.2495 10.9209 17.5046 10.8165C17.7598 10.7121 18.0335 10.6579 18.3101 10.657Z" fill="black"/>
<path d="M11.5191 8.11548C11.5216 7.76047 11.6675 7.42077 11.9253 7.17017C12.1831 6.91957 12.5318 6.77832 12.8957 6.77711C13.689 6.77388 14.3243 7.38122 14.3177 8.13717C14.3111 8.88389 13.6436 9.51108 12.8744 9.49261C12.1265 9.47277 11.5153 8.85251 11.5191 8.11548Z" fill="#010101"/>
<path d="M10.7284 13.4967C10.6172 11.7711 9.21456 10.478 7.57113 10.5892C5.8208 10.7083 4.51845 12.1094 4.61543 13.7736C4.71005 15.3745 6.23662 16.7152 7.82517 16.5888C9.53908 16.4535 10.8301 15.0787 10.7284 13.4967ZM7.82281 15.4479C6.74611 15.4678 5.84303 14.5711 5.85013 13.4953C5.85675 12.5012 6.72482 11.6853 7.77597 11.6853C8.03307 11.6847 8.28768 11.7344 8.5247 11.8316C8.76172 11.9288 8.97632 12.0714 9.15579 12.251C9.33526 12.4306 9.47594 12.6436 9.56949 12.8772C9.66304 13.1108 9.70755 13.3604 9.7004 13.6111C9.68384 14.5498 8.7836 15.4304 7.82281 15.4479Z" fill="black"/>
<path d="M8.83711 13.5304C8.84092 13.669 8.81634 13.807 8.76482 13.9362C8.71331 14.0654 8.63589 14.1833 8.53709 14.283C8.4383 14.3827 8.32011 14.4621 8.18946 14.5167C8.0588 14.5713 7.9183 14.5999 7.77618 14.6008C7.63406 14.6018 7.49317 14.5751 7.36176 14.5223C7.23035 14.4694 7.11106 14.3916 7.01087 14.2932C6.91068 14.1949 6.83161 14.078 6.77828 13.9495C6.72495 13.821 6.69843 13.6834 6.70029 13.5447C6.70312 13.0099 7.18092 12.5294 7.73251 12.504C8.29357 12.4796 8.82482 12.9725 8.83711 13.5304Z" fill="#010101"/>
</g>
<defs>
<clipPath id="clip0_1_14943">
<rect width="25" height="22" fill="white"/>
</clipPath>
</defs>
</svg>
