<svg width="18" height="18" viewBox="0 0 18 18" fill="none" xmlns="http://www.w3.org/2000/svg">
<path d="M9.01491 4.33628C6.42439 4.33628 4.31641 6.41351 4.31641 8.96701C4.31641 11.5202 6.4241 13.5974 9.01491 13.5974C11.6054 13.5974 13.7134 11.5202 13.7134 8.96701C13.7134 6.41351 11.6054 4.33628 9.01491 4.33628ZM9.01491 11.8927C7.36768 11.8927 6.02782 10.58 6.02782 8.96701C6.02782 7.35373 7.36768 6.04135 9.01491 6.04135C10.6618 6.04135 12.002 7.35373 12.002 8.96701C12.002 10.5803 10.6621 11.8927 9.01491 11.8927Z" fill="#4F4F4F"/>
<path d="M12.819 0H5.18105C2.32438 0 0 2.31507 0 5.16096V12.839C0 15.6846 2.32408 18 5.18105 18H12.819C15.6759 18 18 15.6846 18 12.839V5.16096C18 2.31536 15.6759 0 12.819 0ZM16.2853 12.839C16.2853 14.743 14.7303 16.292 12.819 16.292H5.18105C3.26973 16.292 1.71465 14.743 1.71465 12.839V5.16096C1.71465 3.25705 3.26973 1.708 5.18105 1.708H12.819C14.7303 1.708 16.2853 3.25705 16.2853 5.16096V12.839Z" fill="#4F4F4F"/>
<path d="M13.7969 5.24835C14.4075 5.24835 14.9024 4.75532 14.9024 4.14713C14.9024 3.53893 14.4075 3.0459 13.7969 3.0459C13.1864 3.0459 12.6914 3.53893 12.6914 4.14713C12.6914 4.75532 13.1864 5.24835 13.7969 5.24835Z" fill="#4F4F4F"/>
</svg>
